<?xml version="1.0" encoding="UTF-8"?>
<svg xmlns="http://www.w3.org/2000/svg" xmlns:xlink="http://www.w3.org/1999/xlink" viewBox="0 0 50 50" width="50px" height="50px">
<g id="surface73709283">
<rect x="0" y="0" width="50" height="50" style="fill:rgb(15.686275%,17.254902%,20%);fill-opacity:1;stroke:none;"/>
<path style=" stroke:none;fill-rule:nonzero;fill:rgb(100%,100%,100%);fill-opacity:1;" d="M 16.878906 1.800781 C 13.675781 1.800781 11.078125 4.398438 11.078125 7.601562 L 11.078125 8.761719 L 33.699219 8.761719 C 37.863281 8.761719 41.238281 12.136719 41.238281 16.300781 L 41.238281 27.898438 C 41.238281 30.140625 39.421875 31.960938 37.179688 31.960938 L 22.101562 31.960938 C 19.859375 31.960938 18.039062 30.140625 18.039062 27.898438 L 18.039062 20.359375 L 13.398438 20.359375 C 12.117188 20.359375 11.078125 21.398438 11.078125 22.679688 L 11.078125 33.121094 C 11.078125 36.324219 13.675781 38.921875 16.878906 38.921875 L 42.398438 38.921875 C 45.601562 38.921875 48.199219 36.324219 48.199219 33.121094 L 48.199219 7.601562 C 48.199219 4.398438 45.601562 1.800781 42.398438 1.800781 Z M 7.601562 11.078125 C 4.398438 11.078125 1.800781 13.675781 1.800781 16.878906 L 1.800781 42.398438 C 1.800781 45.601562 4.398438 48.199219 7.601562 48.199219 L 33.121094 48.199219 C 36.324219 48.199219 38.921875 45.601562 38.921875 42.398438 L 38.921875 41.238281 L 16.300781 41.238281 C 12.136719 41.238281 8.761719 37.863281 8.761719 33.699219 L 8.761719 22.101562 C 8.761719 19.859375 10.578125 18.039062 12.820312 18.039062 L 27.898438 18.039062 C 30.140625 18.039062 31.960938 19.859375 31.960938 22.101562 L 31.960938 29.640625 L 36.601562 29.640625 C 37.882812 29.640625 38.921875 28.601562 38.921875 27.320312 L 38.921875 16.878906 C 38.921875 13.675781 36.324219 11.078125 33.121094 11.078125 Z M 7.601562 11.078125 "/>
</g>
</svg>
