<?xml version="1.0" encoding="UTF-8"?>
<svg xmlns="http://www.w3.org/2000/svg" xmlns:xlink="http://www.w3.org/1999/xlink" viewBox="0 0 25 25" width="25px" height="25px">
<g id="surface74010881">
<path style=" stroke:none;fill-rule:nonzero;fill:rgb(50.196081%,50.196081%,50.196081%);fill-opacity:1;" d="M 2.75 3.5 C 1.507812 3.5 0.5 4.507812 0.5 5.75 L 0.5 5.960938 L 12.5 14.5 L 24.5 5.960938 L 24.5 5.75 C 24.5 4.507812 23.492188 3.5 22.25 3.5 Z M 3.175781 4.5 L 21.820312 4.5 L 12.5 11 Z M 0.5 7.011719 L 0.5 19.25 C 0.5 20.492188 1.507812 21.5 2.75 21.5 L 22.25 21.5 C 23.492188 21.5 24.5 20.492188 24.5 19.25 L 24.5 7.011719 L 21.5 9.148438 L 21.5 20.5 L 3.5 20.5 L 3.5 9.148438 Z M 0.5 7.011719 "/>
</g>
</svg>
